<?xml version="1.0" standalone="no"?>
<!DOCTYPE svg PUBLIC "-//W3C//DTD SVG 20010904//EN"
 "http://www.w3.org/TR/2001/REC-SVG-20010904/DTD/svg10.dtd">
<svg version="1.0" xmlns="http://www.w3.org/2000/svg"
 width="484.000000pt" height="138.000000pt" viewBox="0 0 484.000000 138.000000"
 preserveAspectRatio="xMidYMid meet">

<g transform="translate(0.000000,138.000000) scale(0.100000,-0.100000)"
fill="#5B2434" stroke="none">
<path d="M1740 737 l0 -315 49 -41 c27 -23 52 -41 55 -41 3 0 6 42 6 94 0 139
9 140 112 14 l84 -103 67 -3 c37 -2 67 0 67 3 0 3 -49 67 -110 142 l-109 138
64 65 c36 36 65 72 65 81 0 8 -14 28 -30 44 l-30 29 -90 -89 -90 -90 0 150 0
150 -55 43 -55 43 0 -314z"/>
<path d="M3521 1015 c-17 -20 -31 -39 -31 -44 0 -4 18 -22 40 -40 45 -36 52
-34 92 22 l21 29 -29 24 c-56 46 -59 47 -93 9z"/>
<path d="M4630 920 l0 -132 -34 21 c-44 27 -110 36 -164 21 -62 -16 -146 -100
-162 -160 -16 -60 -8 -156 18 -206 65 -128 231 -164 329 -72 l22 21 51 -43 50
-42 -1 319 0 318 -55 43 -54 43 0 -131z m-62 -200 c86 -53 78 -221 -12 -264
-95 -45 -186 17 -186 127 0 124 103 195 198 137z"/>
<path d="M50 1025 c0 -3 17 -28 37 -55 l37 -50 73 0 73 0 0 -244 0 -244 54
-46 c29 -25 56 -46 60 -46 3 0 6 131 6 290 l0 290 105 0 c120 0 120 1 51 74
l-33 36 -232 0 c-127 0 -231 -2 -231 -5z"/>
<path d="M2660 724 l0 -296 38 -35 c77 -71 72 -85 72 198 0 139 3 249 7 246 3
-4 48 -114 99 -245 l93 -237 48 -3 48 -2 89 234 c49 130 93 241 98 248 4 7 8
-80 8 -194 l0 -206 52 -46 c29 -25 56 -46 60 -46 5 0 8 153 8 340 l0 341 -91
-3 -91 -3 -85 -230 c-47 -126 -88 -233 -92 -237 -3 -4 -46 101 -96 233 l-90
239 -87 0 -88 0 0 -296z"/>
<path d="M1030 820 l0 -29 -34 20 c-57 33 -125 36 -188 6 -90 -40 -142 -124
-142 -229 0 -128 79 -228 194 -244 56 -8 120 9 158 41 l28 24 45 -36 44 -35 3
214 2 213 -47 42 c-27 23 -51 42 -55 43 -5 0 -8 -13 -8 -30z m-64 -99 c88 -54
84 -222 -6 -268 -62 -31 -138 -3 -170 61 -22 47 -25 75 -10 125 25 86 114 126
186 82z"/>
<path d="M1372 839 c-24 -4 -58 -17 -75 -27 -97 -56 -104 -194 -14 -244 12 -7
70 -15 129 -18 63 -4 114 -12 123 -20 21 -17 19 -56 -5 -80 -18 -18 -33 -20
-160 -20 -77 0 -140 -4 -140 -8 0 -4 14 -27 32 -51 l31 -43 112 4 c130 5 194
29 232 87 31 46 32 127 2 165 -30 38 -58 46 -176 51 -60 2 -111 9 -119 16 -18
15 -18 50 0 75 13 17 31 20 156 24 l141 5 -26 35 c-14 19 -33 41 -42 48 -19
14 -133 15 -201 1z"/>
<path d="M3740 636 l0 -216 53 -41 52 -42 5 169 c3 93 9 177 14 186 23 50 128
75 174 42 21 -14 22 -22 22 -161 l0 -145 31 -29 c18 -16 45 -39 61 -51 l30
-20 -4 205 c-3 225 -5 231 -72 281 -43 33 -157 29 -218 -6 l-45 -27 -34 25
c-75 56 -69 70 -69 -170z"/>
<path d="M3500 638 c0 -149 3 -208 13 -219 15 -19 92 -79 101 -79 3 0 6 89 6
198 0 219 4 206 -72 267 l-48 37 0 -204z"/>
<path d="M2200 714 c0 -3 16 -26 36 -50 l36 -44 149 0 c82 0 149 3 149 8 0 4
-17 26 -39 50 l-39 42 -146 0 c-80 0 -146 -3 -146 -6z"/>
</g>
</svg>
